<svg width="81" height="81" viewBox="0 0 81 81" fill="none" xmlns="http://www.w3.org/2000/svg">
<path d="M25.1309 34.02C25.1858 34.0874 24.8528 34.6053 24.7977 34.7131C23.5387 37.136 22.3713 40.7703 24.5137 43.062C27.0645 45.7906 31.6753 44.2144 34.7204 43.4019L40.8747 41.7593L63.4845 35.7565L67.4525 34.7091C67.6718 34.6508 69.027 34.2588 69.1782 34.2681C68.8504 34.4687 67.3946 35.0562 66.9643 35.2408L62.379 37.2158C61.7221 37.4978 60.6112 37.9281 60.0306 38.2319C59.8635 38.3268 59.3605 38.5076 59.1586 38.5945L56.7279 39.6321L48.79 43.0262L36.7035 48.2074L33.2941 49.6563C30.4722 50.8735 27.6482 52.0557 24.535 52.2564C22.7433 52.3719 20.825 52.0155 19.4786 50.7465C18.2789 49.6158 17.897 48.4597 17.821 46.8623C17.8138 46.7346 17.8681 46.4849 17.8781 46.3425C18.159 42.3294 20.866 38.8666 23.402 35.9422C23.9079 35.3653 24.6023 34.5492 25.1309 34.02Z" fill="black"/>
</svg>
