<svg width="35" height="35" viewBox="0 0 35 35" fill="none" xmlns="http://www.w3.org/2000/svg">
<path d="M8 0.5H27C31.1421 0.5 34.5 3.85786 34.5 8V27C34.5 31.1421 31.1421 34.5 27 34.5H8C3.85786 34.5 0.5 31.1421 0.5 27V8C0.5 3.85786 3.85786 0.5 8 0.5Z" fill="black" stroke="black"/>
<path d="M10.8588 14.7C10.8826 14.7291 10.7387 14.9529 10.7149 14.9995C10.1709 16.0464 9.66644 17.6168 10.5922 18.607C11.6943 19.7861 13.6867 19.105 15.0025 18.7539L17.6617 18.0442L27.4314 15.4503L29.146 14.9977C29.2407 14.9726 29.8263 14.8032 29.8916 14.8072C29.75 14.8939 29.121 15.1477 28.935 15.2275L26.9537 16.0809C26.6699 16.2028 26.1898 16.3887 25.939 16.5199C25.8668 16.5609 25.6494 16.6391 25.5622 16.6767L24.5119 17.125L21.0819 18.5916L15.8594 20.8304L14.3862 21.4564C13.1668 21.9824 11.9466 22.4932 10.6013 22.5799C9.82715 22.6298 8.99828 22.4758 8.41648 21.9275C7.89809 21.4389 7.73307 20.9394 7.70023 20.2491C7.69713 20.194 7.7206 20.0861 7.72491 20.0245C7.84632 18.2905 9.01599 16.7942 10.1118 15.5306C10.3304 15.2813 10.6304 14.9287 10.8588 14.7Z" fill="white"/>
</svg>
