<svg width="30" height="40" viewBox="0 0 30 40" fill="none" xmlns="http://www.w3.org/2000/svg">
<path fill-rule="evenodd" clip-rule="evenodd" d="M12.936 0.0160069C12.3509 0.0343758 11.983 0.0624087 11.8427 0.0993679C11.7264 0.129983 11.4985 0.174909 11.3362 0.199217C11.1739 0.223524 10.9092 0.28302 10.7479 0.331414C10.5867 0.379845 10.4216 0.41946 10.381 0.41946C10.3404 0.41946 10.2105 0.458853 10.0925 0.506989C9.97444 0.555088 9.81031 0.606284 9.72776 0.620707C9.64521 0.635166 9.52502 0.678764 9.46067 0.717642C9.39631 0.756519 9.31992 0.788314 9.29087 0.788314C9.26179 0.788314 9.13718 0.837593 9.01388 0.897827C8.89057 0.958024 8.76239 1.00782 8.72907 1.00848C8.69575 1.00911 8.62821 1.04043 8.57898 1.07805C8.52975 1.11567 8.4275 1.16632 8.35177 1.19059C8.27602 1.21486 8.19448 1.2579 8.17054 1.28627C8.1466 1.31463 8.06506 1.35768 7.9893 1.38195C7.91358 1.40622 7.81133 1.45686 7.76209 1.49449C7.71286 1.53211 7.65189 1.56291 7.62656 1.56291C7.60119 1.56291 7.51673 1.6127 7.43883 1.67356C7.36093 1.73443 7.2768 1.78422 7.25185 1.78422C7.22694 1.78422 7.17639 1.81701 7.13951 1.85703C7.10262 1.89709 7.03669 1.94084 6.99298 1.95423C6.94926 1.96765 6.86014 2.02202 6.79489 2.07506C6.72964 2.1281 6.61497 2.21301 6.54007 2.26373C6.31662 2.415 6.13196 2.5486 6.0209 2.63934C5.48941 3.07355 4.67613 3.8515 4.312 4.27399C4.15463 4.45657 3.9833 4.64904 3.93125 4.70164C3.87917 4.75427 3.79437 4.85903 3.74277 4.93438C3.69118 5.00978 3.59351 5.14098 3.5257 5.226C3.28495 5.52791 3.15302 5.71141 3.03005 5.91539C2.98728 5.98639 2.90274 6.11918 2.84221 6.21047C2.63869 6.51751 2.37628 6.96286 2.29887 7.13261C2.26649 7.20361 2.22319 7.28661 2.20266 7.31704C2.1821 7.34747 2.13989 7.43046 2.10885 7.50146C2.07779 7.57247 2.03636 7.65546 2.01681 7.68589C1.92124 7.83435 1.67899 8.34094 1.67899 8.39225C1.67899 8.4243 1.64683 8.49069 1.60754 8.53979C1.56825 8.58888 1.51606 8.70319 1.49156 8.79374C1.46705 8.88433 1.41659 9.00823 1.3794 9.06909C1.34225 9.12996 1.29947 9.23718 1.28432 9.30737C1.26919 9.37757 1.22439 9.49615 1.18477 9.57088C1.14514 9.64561 1.10263 9.77077 1.09032 9.849C1.07797 9.92723 1.03647 10.0529 0.998086 10.1283C0.959662 10.2037 0.910131 10.3531 0.88803 10.4603C0.865891 10.5675 0.817336 10.7382 0.78015 10.8396C0.700713 11.0563 0.565929 11.5808 0.495836 11.9462C0.468556 12.0882 0.419888 12.3026 0.387618 12.4227C0.355348 12.5428 0.318575 12.7503 0.30593 12.8838C0.293247 13.0173 0.258763 13.2593 0.229232 13.4216C0.0666802 14.3155 -0.0519687 16.427 0.023003 17.0917C0.0447291 17.2844 0.0804889 17.7874 0.102478 18.2095C0.124429 18.6315 0.166305 19.0885 0.195536 19.225C0.224729 19.3616 0.266755 19.6467 0.288894 19.8587C0.310995 20.0707 0.361239 20.3606 0.400526 20.5029C0.439776 20.6453 0.483453 20.8607 0.497524 20.9817C0.511633 21.1027 0.553584 21.2776 0.590807 21.3704C0.628031 21.4632 0.670395 21.6381 0.684991 21.759C0.699588 21.88 0.742664 22.0499 0.780751 22.1366C0.818799 22.2232 0.86698 22.3846 0.887805 22.4953C0.908593 22.6059 0.949569 22.7425 0.978799 22.7988C1.00803 22.8551 1.05084 22.9888 1.07392 23.096C1.097 23.2032 1.14765 23.3526 1.18645 23.428C1.22529 23.5034 1.26919 23.6232 1.28405 23.6942C1.29887 23.7652 1.34135 23.8752 1.37842 23.9386C1.4155 24.002 1.45805 24.1085 1.47295 24.1752C1.48784 24.2419 1.5403 24.3709 1.58953 24.4619C1.63872 24.5529 1.67899 24.6495 1.67899 24.6766C1.67899 24.7207 1.85895 25.1021 1.94642 25.2434C1.96525 25.2738 2.00612 25.3568 2.03715 25.4278C2.06822 25.4988 2.11009 25.5859 2.13021 25.6214C2.15032 25.657 2.18326 25.715 2.20338 25.7505C2.22349 25.786 2.26645 25.8732 2.29884 25.9442C2.33126 26.0152 2.40679 26.1563 2.46672 26.2577C2.52664 26.3591 2.61047 26.5085 2.65306 26.5897C2.72308 26.7232 2.77853 26.8103 3.00822 27.1476C3.04792 27.2059 3.14079 27.3427 3.21459 27.4516C3.2884 27.5604 3.38683 27.7015 3.43336 27.7651C3.47985 27.8287 3.56259 27.9471 3.61715 28.0282C3.70412 28.1575 3.92506 28.4295 4.12694 28.6559C4.16281 28.6961 4.29467 28.8452 4.41992 28.9872C4.82454 29.4459 5.1009 29.7172 5.5615 30.1076C6.06378 30.5334 6.6096 30.9606 6.65129 30.9606C6.66622 30.9606 6.73384 31.0063 6.80149 31.062C6.86915 31.1178 6.99594 31.205 7.08318 31.2557C7.17046 31.3064 7.3284 31.4026 7.43414 31.4695C7.53992 31.5364 7.72776 31.6412 7.85159 31.7025C7.97542 31.7638 8.11894 31.837 8.17054 31.8651C8.36269 31.9701 9.07586 32.2885 9.11958 32.2888C9.14449 32.289 9.25361 32.3298 9.36202 32.3794C9.47038 32.429 9.62235 32.4809 9.69973 32.4947C9.77706 32.5085 9.90033 32.5494 9.97369 32.5856C10.047 32.6218 10.2158 32.6708 10.3487 32.6945C10.4815 32.7182 10.6471 32.7609 10.7166 32.7895C10.7861 32.818 11.0101 32.866 11.2144 32.896C11.4187 32.926 11.688 32.9766 11.8129 33.0084C12.0505 33.0689 13.3275 33.1488 14.0242 33.1466C14.7631 33.1444 15.719 33.0717 16.0129 32.9953C16.1677 32.9552 16.3703 32.9115 16.4632 32.8984C16.5561 32.8853 16.7249 32.8426 16.8384 32.8035C17.1916 32.6817 17.6762 32.5912 17.7775 32.628C17.8276 32.6462 17.9063 32.6518 17.9524 32.6404L18.0363 32.6198L17.9592 32.4914C17.8663 32.3365 17.6909 32.1859 17.5684 32.1557C17.5105 32.1414 17.4334 32.161 17.3511 32.211C17.281 32.2536 17.1986 32.2885 17.1679 32.2885C17.1373 32.2885 17.0335 32.3296 16.9372 32.38C16.8409 32.4303 16.6586 32.4879 16.5322 32.5079C16.4057 32.5279 16.2245 32.5685 16.1294 32.5982C15.9516 32.6537 15.1776 32.7499 14.4638 32.8053C13.8783 32.8507 12.4581 32.7263 11.9915 32.5887C11.8609 32.5502 11.6527 32.4933 11.5289 32.4622C11.2127 32.383 10.9594 32.2965 10.7404 32.193C10.6369 32.1441 10.5262 32.104 10.4944 32.104C10.4625 32.104 10.3805 32.0634 10.312 32.0138C10.2436 31.9641 10.1407 31.9134 10.0835 31.901C10.0263 31.8887 9.94975 31.8463 9.91346 31.8069C9.87714 31.7674 9.82892 31.7352 9.80626 31.7352C9.76502 31.7352 9.45106 31.5268 9.33766 31.4241C9.05069 31.1642 8.94761 31.0607 8.78457 30.8684C8.68138 30.7467 8.57545 30.5943 8.54918 30.5299C8.52288 30.4654 8.46915 30.384 8.42978 30.3489C8.39039 30.3139 8.35778 30.2504 8.35733 30.208C8.35688 30.1655 8.32393 30.0602 8.28416 29.974C8.02517 29.4132 8.28705 28.5737 8.87042 28.0946C9.21114 27.8148 9.57601 27.5602 9.8028 27.444C10.1537 27.2642 10.5453 27.0977 10.6846 27.069C10.7568 27.0541 10.8628 27.0183 10.9201 26.9895C10.9774 26.9607 11.2813 26.8922 11.5955 26.8372C12.1921 26.7328 12.6474 26.7152 12.9172 26.786C12.9998 26.8077 13.2502 26.8517 13.4738 26.8839C13.6973 26.916 13.9168 26.9651 13.9616 26.9929C14.0063 27.0206 14.1356 27.0623 14.2488 27.0855C14.3621 27.1086 14.4887 27.1492 14.5303 27.1757C14.5718 27.2023 14.6733 27.2454 14.7559 27.2716C14.8384 27.2978 14.9482 27.3475 14.9998 27.3822C15.0514 27.4168 15.1493 27.4637 15.2173 27.4864C15.2854 27.5091 15.3847 27.5614 15.4381 27.6027C15.4915 27.644 15.5525 27.6778 15.5735 27.6778C15.5946 27.6778 15.6672 27.7193 15.7348 27.77C15.8025 27.8207 15.8735 27.8622 15.8927 27.8622C15.9119 27.8622 15.9883 27.9079 16.0625 27.9637C16.1367 28.0194 16.2575 28.1066 16.3309 28.1573C17.25 28.7922 18.5216 29.9606 19.0187 30.6268C19.0724 30.6988 19.1737 30.8189 19.2438 30.8936C19.4305 31.0925 19.7061 31.4347 19.8778 31.6807C19.9294 31.7546 20.0139 31.8616 20.0655 31.9184C20.1171 31.9752 20.2437 32.1412 20.3469 32.2872C20.4501 32.4331 20.581 32.6074 20.6377 32.6744C20.6945 32.7414 20.7409 32.8066 20.7409 32.8194C20.7409 32.8321 20.8127 32.9432 20.9004 33.0661C21.1467 33.4113 21.261 33.5873 21.3218 33.7153C21.3525 33.7798 21.395 33.8432 21.4163 33.8561C21.4375 33.869 21.4927 33.9461 21.5388 34.0273C21.5849 34.1086 21.6679 34.2527 21.7232 34.3476C21.7785 34.4424 21.9136 34.6911 22.0234 34.9001C22.1332 35.1092 22.2568 35.344 22.2981 35.422C22.3394 35.5001 22.3992 35.5946 22.4309 35.6321C22.4627 35.6697 22.5175 35.7585 22.5527 35.8295C22.5878 35.9005 22.6843 36.064 22.7669 36.1928C22.8496 36.3216 22.9172 36.4354 22.9172 36.4457C22.9172 36.4559 22.9552 36.5107 23.0017 36.5675C23.0481 36.6242 23.1368 36.7564 23.1987 36.8612C23.2606 36.9659 23.3534 37.1081 23.405 37.1771C23.4566 37.2461 23.5833 37.4202 23.6865 37.5638C24.1586 38.2212 24.3924 38.5004 24.8517 38.9555C25.3042 39.4039 25.4688 39.5217 25.4688 39.3971C25.4688 39.3712 25.4224 39.3065 25.3656 39.2533C25.3089 39.2001 25.178 39.046 25.0748 38.9109C24.9716 38.7758 24.8408 38.6101 24.784 38.5427C24.7273 38.4753 24.6808 38.4106 24.6808 38.3991C24.6808 38.3874 24.6006 38.271 24.5026 38.1402C24.328 37.9074 24.2264 37.7535 24.1224 37.565C24.0939 37.5132 24.0468 37.444 24.0178 37.4112C23.9459 37.3296 23.7052 36.9341 23.7052 36.8975C23.7052 36.8812 23.6641 36.8199 23.6139 36.7612C23.5636 36.7025 23.5113 36.6106 23.4976 36.557C23.4839 36.5034 23.4481 36.4394 23.4179 36.4149C23.3878 36.3903 23.3387 36.3191 23.3088 36.2566C23.2788 36.1941 23.1969 36.0434 23.1268 35.9217C23.0566 35.8 22.9354 35.5778 22.8575 35.4281C22.7795 35.2783 22.6784 35.1016 22.6326 35.0354C22.5869 34.9691 22.5376 34.8759 22.5231 34.8281C22.5086 34.7804 22.4696 34.6999 22.4364 34.6491C22.3459 34.5104 22.2166 34.2777 22.1496 34.1327C22.1167 34.0617 22.074 33.9787 22.0545 33.9483C22.014 33.885 21.6539 33.2635 21.5605 33.0959C21.5263 33.0344 21.4745 32.9563 21.4454 32.9222C21.4163 32.8881 21.3211 32.744 21.2338 32.602C21.1465 32.46 21.0443 32.3023 21.0068 32.2516C20.9692 32.2009 20.8774 32.0681 20.8026 31.9565C20.7279 31.8449 20.6078 31.6706 20.5356 31.5692C20.3184 31.2641 20.3244 31.2545 20.9766 30.8649C21.1721 30.7481 21.2739 30.677 21.6845 30.3704C22.3685 29.8598 22.9752 29.3092 23.5176 28.7067C23.8304 28.3593 23.8363 28.3524 23.979 28.1668C24.0451 28.0807 24.1801 27.9064 24.2789 27.7795C24.4981 27.498 24.7563 27.1262 24.8875 26.9032C24.9412 26.8119 25.0755 26.5878 25.1861 26.4052C25.4698 25.9364 26.0692 24.7502 26.0692 24.6576C26.0692 24.6328 26.1029 24.5511 26.1441 24.4761C26.2906 24.2092 26.7409 22.9444 26.8398 22.5218C26.8697 22.3944 26.9182 22.2443 26.9476 22.1883C26.977 22.1324 27.0193 21.9585 27.0414 21.8018C27.0636 21.6452 27.1081 21.455 27.1404 21.3792C27.1727 21.3033 27.2157 21.1085 27.2358 20.9462C27.256 20.7839 27.2966 20.5676 27.3262 20.4654C27.3557 20.3633 27.3985 20.1143 27.4211 19.9122C27.4438 19.71 27.4993 19.3288 27.5444 19.065C27.6228 18.6069 27.6264 18.4812 27.6264 16.2433C27.6264 14.1611 27.6192 13.8683 27.5615 13.6059C27.5258 13.4436 27.4718 13.1025 27.4415 12.848C27.4112 12.5935 27.3682 12.3381 27.3459 12.2804C27.3236 12.2228 27.2785 12.0078 27.2457 11.8027C27.2129 11.5976 27.1634 11.3862 27.1357 11.333C27.108 11.2797 27.0671 11.1241 27.0448 10.9871C27.0226 10.8502 26.9804 10.6925 26.951 10.6368C26.9217 10.581 26.8728 10.4183 26.8425 10.2751C26.8121 10.1319 26.7627 9.97625 26.7326 9.92922C26.7026 9.88216 26.6669 9.7815 26.6533 9.70548C26.6398 9.62942 26.5874 9.48003 26.5369 9.37351C26.4865 9.26695 26.445 9.15651 26.4448 9.12811C26.4446 9.09971 26.4038 8.99182 26.3542 8.88836C26.3045 8.78489 26.2098 8.57575 26.1438 8.4236C25.9409 7.95574 25.5578 7.21191 25.2605 6.70843C25.2126 6.62728 25.1363 6.49501 25.091 6.41449C25.0457 6.33397 24.9794 6.22608 24.9436 6.17473C24.9078 6.12339 24.8164 5.99008 24.7405 5.8785C24.6646 5.76693 24.5521 5.60924 24.4904 5.52809C24.4288 5.44694 24.3497 5.33905 24.3146 5.28834C24.1823 5.09679 23.8739 4.71252 23.7692 4.60876C23.7094 4.54945 23.5965 4.41666 23.5184 4.31368C23.3197 4.05175 22.3383 3.11638 21.8666 2.7393C21.2896 2.27808 20.2265 1.56291 20.118 1.56291C20.0921 1.56291 20.0453 1.53786 20.0142 1.50725C19.9831 1.47667 19.8848 1.41813 19.7958 1.37723C19.7068 1.33632 19.5917 1.27874 19.5401 1.24927C19.4885 1.2198 19.3281 1.14437 19.1837 1.08163C19.0392 1.01889 18.8535 0.935672 18.7709 0.89672C18.6014 0.816716 18.2788 0.703994 17.9454 0.608276C17.8216 0.572719 17.6823 0.52344 17.636 0.498763C17.5896 0.474087 17.4545 0.436833 17.3358 0.415992C17.217 0.395115 17.0354 0.348197 16.9323 0.311681C16.8291 0.275164 16.6484 0.234627 16.5309 0.221643C16.4133 0.208623 16.1769 0.165024 16.0055 0.124782C15.5505 0.017925 14.2944 -0.0265958 12.936 0.0160069ZM14.6433 0.310205C15.2735 0.368705 15.8252 0.451845 16.0602 0.523772C16.189 0.563202 16.3619 0.612776 16.4444 0.633949C16.8775 0.745121 17.7798 1.15437 18.0955 1.3828C18.178 1.44251 18.2878 1.51946 18.3394 1.55372C18.5431 1.68902 18.926 2.01988 19.0148 2.13736C19.0664 2.2056 19.2099 2.39029 19.3338 2.54779C19.5755 2.85519 19.5805 2.86242 19.7389 3.13463C19.7966 3.23382 19.868 3.35646 19.8975 3.40718C19.9271 3.4579 20.0038 3.61558 20.0682 3.75759C20.1326 3.8996 20.2258 4.099 20.2754 4.20073C20.325 4.30246 20.3656 4.41526 20.3656 4.45141C20.3656 4.48755 20.4079 4.59508 20.4595 4.69035C20.5111 4.78562 20.5533 4.89237 20.5533 4.92756C20.5533 4.96279 20.5955 5.10181 20.6471 5.23655C20.6987 5.37129 20.7409 5.51411 20.7409 5.55395C20.7409 5.59379 20.7816 5.74535 20.8314 5.89075C20.8811 6.03615 20.9405 6.2658 20.9632 6.40102C20.986 6.53625 21.0276 6.7109 21.0557 6.78913C21.0838 6.8674 21.1186 7.03892 21.133 7.17034C21.1475 7.30173 21.1924 7.55015 21.233 7.72237C21.2735 7.89459 21.3317 8.28465 21.3624 8.58918C21.3931 8.8937 21.4344 9.19266 21.4541 9.25352C21.4738 9.31438 21.516 9.70445 21.5477 10.1203C21.5794 10.5362 21.6216 11.0342 21.6413 11.2269C21.7895 12.6757 21.7884 19.8077 21.6396 21.4724C21.6202 21.6901 21.5795 22.2003 21.5493 22.606C21.519 23.0118 21.4781 23.3936 21.4584 23.4544C21.4386 23.5153 21.402 23.7726 21.3771 24.0261C21.3522 24.2797 21.2991 24.6449 21.2592 24.8376C21.2192 25.0303 21.1631 25.3576 21.1346 25.5648C21.106 25.772 21.0659 25.9723 21.0455 26.0099C21.025 26.0475 20.9816 26.2293 20.949 26.4139C20.9164 26.5985 20.8659 26.8056 20.8368 26.8741C20.8077 26.9426 20.7723 27.1058 20.7581 27.2368C20.7439 27.3677 20.7013 27.5458 20.6633 27.6325C20.6253 27.7191 20.5773 27.8803 20.5566 27.9906C20.5359 28.1009 20.4844 28.2575 20.4423 28.3387C20.4001 28.4199 20.3656 28.5161 20.3655 28.5523C20.3654 28.5887 20.3148 28.718 20.2531 28.8397C20.1913 28.9614 20.1407 29.081 20.1407 29.1055C20.1406 29.1299 20.0983 29.2111 20.0467 29.2858C19.9951 29.3605 19.9529 29.4459 19.9529 29.4754C19.9529 29.505 19.921 29.5732 19.8821 29.627C19.8432 29.6809 19.7858 29.783 19.7545 29.854C19.6979 29.9826 19.5247 30.186 19.4718 30.186C19.4565 30.186 19.3348 30.0693 19.2013 29.9267C18.6666 29.3556 17.9357 28.6642 17.5595 28.3736C17.4712 28.3054 17.2909 28.1624 17.1589 28.0559C17.027 27.9493 16.9113 27.8622 16.9018 27.8622C16.8923 27.8622 16.7807 27.7917 16.6537 27.7055C16.5268 27.6193 16.3731 27.5218 16.3122 27.489C16.2513 27.4562 16.1801 27.4123 16.1541 27.3914C16.0596 27.3157 15.2155 26.9032 15.1551 26.9032C15.121 26.9032 15.0163 26.8631 14.9226 26.8141C14.829 26.765 14.6856 26.7129 14.604 26.6983C14.5224 26.6837 14.3797 26.643 14.2869 26.6079C14.194 26.5728 13.8744 26.5147 13.5767 26.4788C13.0157 26.4111 12.7773 26.4135 11.6415 26.4986C10.9592 26.5497 9.95249 26.5114 9.67147 26.4237C9.55796 26.3882 9.38911 26.3472 9.29624 26.3326C9.01823 26.2887 8.20461 25.9272 7.92663 25.724C7.84408 25.6637 7.73526 25.5849 7.6848 25.549C7.46877 25.3951 7.09418 24.9818 6.96979 24.76C6.7899 24.4392 6.59455 24.0482 6.59455 24.0089C6.59455 23.9839 6.55429 23.8889 6.5051 23.7979C6.45587 23.707 6.40318 23.5758 6.38799 23.5066C6.37279 23.4373 6.33515 23.3321 6.30431 23.2729C6.2735 23.2136 6.22465 22.9729 6.19575 22.7381C6.16686 22.5031 6.11879 22.1865 6.08892 22.0343C6.05906 21.8822 6.01504 21.5087 5.9911 21.2044C5.96716 20.9001 5.93279 20.5017 5.91474 20.3192C5.81838 19.3453 5.79684 18.5464 5.7959 15.9113C5.79482 12.8536 5.79009 12.9651 6.029 10.4339C6.04817 10.231 6.08821 9.95711 6.11804 9.82524C6.14787 9.69338 6.18427 9.43024 6.19891 9.24054C6.21358 9.0508 6.2499 8.81012 6.27966 8.7057C6.30945 8.60124 6.35831 8.34533 6.38825 8.13696C6.41819 7.92856 6.45969 7.72683 6.48048 7.68866C6.50127 7.65048 6.54543 7.46414 6.57868 7.27451C6.61193 7.08488 6.66221 6.8753 6.69042 6.80875C6.71864 6.74221 6.76078 6.58453 6.78408 6.45834C6.80735 6.33216 6.8571 6.16252 6.89466 6.08137C6.93226 6.00023 6.97523 5.86744 6.99024 5.78629C7.00521 5.70514 7.04645 5.58065 7.08191 5.50965C7.11733 5.43864 7.1651 5.30586 7.18806 5.21457C7.21103 5.12327 7.26416 4.98282 7.30618 4.90248C7.34817 4.82211 7.38254 4.73465 7.38254 4.70813C7.38254 4.68161 7.4332 4.56656 7.49512 4.45251C7.55703 4.33846 7.60769 4.22463 7.60769 4.19955C7.60769 4.17443 7.63215 4.13397 7.66206 4.10955C7.69196 4.08517 7.73632 4.00432 7.76059 3.92985C7.78491 3.85541 7.82776 3.76851 7.85587 3.73675C7.88397 3.70499 7.92675 3.622 7.95091 3.55232C7.97511 3.48265 8.0302 3.38158 8.07335 3.32777C8.11647 3.27395 8.20243 3.14415 8.26435 3.03932C8.43361 2.7528 8.73722 2.39538 9.13785 2.01103C9.54498 1.62041 9.76438 1.4652 10.2906 1.19538C10.3732 1.15307 10.4829 1.09531 10.5345 1.06706C10.7748 0.93545 11.0353 0.826232 11.1633 0.803437C11.2406 0.789716 11.3544 0.75272 11.4163 0.721256C11.4782 0.689793 11.6555 0.635018 11.8103 0.599497C11.9651 0.563977 12.1841 0.508944 12.2969 0.477186C12.4097 0.445427 12.5628 0.41946 12.6371 0.41946C12.7114 0.41946 12.8706 0.40157 12.9909 0.379697C13.522 0.283205 14.0935 0.259156 14.6433 0.310205ZM27.739 36.2526C27.6564 36.2805 27.5129 36.3227 27.42 36.3463C27.0914 36.4301 26.5312 36.8953 26.4376 37.1621C26.4136 37.2305 26.3589 37.3335 26.316 37.3909C26.2447 37.4866 26.2381 37.5462 26.2381 38.0922V38.6891L26.3694 38.9416C26.51 39.2118 26.8593 39.5908 27.0963 39.73C27.1738 39.7756 27.3632 39.8544 27.5171 39.9052C28.1441 40.1121 28.8046 39.9778 29.3767 39.5269C29.5696 39.3749 29.6735 39.2348 29.8375 38.9056C29.945 38.6899 29.9724 38.5856 29.9926 38.3154C30.0206 37.9407 29.9659 37.4744 29.8833 37.3844C29.8526 37.3508 29.8161 37.2787 29.8022 37.2241C29.7721 37.1056 29.2602 36.582 29.0632 36.4684C28.8497 36.3452 28.3161 36.1981 28.09 36.2001C27.9795 36.2011 27.8215 36.2247 27.739 36.2526Z" fill="black"/>
</svg>
